<?xml version="1.0" encoding="utf-8"?>
<!-- Generator: Adobe Illustrator 24.0.3, SVG Export Plug-In . SVG Version: 6.00 Build 0)  -->
<svg version="1.1" id="Layer_1" xmlns="http://www.w3.org/2000/svg" xmlns:xlink="http://www.w3.org/1999/xlink" x="0px" y="0px"
	 viewBox="0 0 122.5 122.5" style="enable-background:new 0 0 122.5 122.5;" xml:space="preserve">
<style type="text/css">
	.st0{fill:#FFFFFF;}
</style>
<title>Asset 2</title>
<g id="Layer_2_1_">
	<g id="Layer_2-2">
		<path class="st0" d="M61.2,0C27.4,0,0,27.4,0,61.2s27.4,61.2,61.2,61.2s61.2-27.4,61.2-61.2C122.5,27.4,95.1,0,61.2,0z M61.2,8.2
			c29.3,0,53.1,23.8,53.1,53.1s-23.8,53.1-53.1,53.1S8.2,90.6,8.2,61.2l0,0c0-29.3,23.6-53,52.9-53.1C61.1,8.2,61.2,8.2,61.2,8.2z
			 M30.9,57.2c-2.3,0-4.1,1.9-4.1,4.1s1.9,4.1,4.1,4.1c0.1,0,0.3,0,0.4,0h59.9c2.3,0,4.1-1.8,4.1-4c0-2.3-1.8-4.1-4-4.1h-60
			C31.2,57.2,31,57.2,30.9,57.2z"/>
		<path class="st0" d="M0,61.2c0,33.8,27.4,61.2,61.2,61.2s61.2-27.4,61.2-61.2S95.1,0,61.2,0C27.4,0,0,27.4,0,61.2z M8.2,61.2
			c0-29.3,23.8-53.1,53.1-53.1s53.1,23.8,53.1,53.1s-23.8,53.1-53.1,53.1l0,0c-29.3,0-53-23.6-53.1-52.9C8.2,61.4,8.2,61.3,8.2,61.2
			z M57.2,91.6c0,2.3,1.9,4.1,4.1,4.1c2.3,0,4.1-1.9,4.1-4.1c0-0.1,0-0.3,0-0.4l0,0V31.3c0-2.3-1.8-4.1-4-4.1c-2.3,0-4.1,1.8-4.1,4
			v60C57.2,91.3,57.2,91.5,57.2,91.6z"/>
	</g>
</g>
</svg>
