<?xml version="1.0" encoding="utf-8"?>
<!-- Generator: Adobe Illustrator 24.0.3, SVG Export Plug-In . SVG Version: 6.00 Build 0)  -->
<svg version="1.1" id="Layer_1" xmlns="http://www.w3.org/2000/svg" xmlns:xlink="http://www.w3.org/1999/xlink" x="0px" y="0px"
	 viewBox="0 0 93.6 93.3" style="enable-background:new 0 0 93.6 93.3;" xml:space="preserve">
<g>
	<path d="M89.8,3.8v86h-86v-86H89.8 M91.8,1.8h-90v90h90V1.8L91.8,1.8z"/>
</g>
<path d="M44.2,47.7c-8.1,1.8-14.3,12-14.5,24.4H64c-0.2-12.4-6.4-22.6-14.5-24.4c-0.4-0.1-0.7-0.5-0.7-0.9s0.3-0.8,0.7-0.9
	c8.1-1.8,14.3-12,14.5-24.4H29.7c0.2,12.4,6.4,22.6,14.5,24.4c0.4,0.1,0.7,0.5,0.7,0.9l0,0C44.9,47.2,44.6,47.6,44.2,47.7z
	 M46.2,54.7v-9.2c0-0.2-0.2-0.4-0.4-0.4c-1.8-0.2-5.3-1.7-6.4-2.8H54c-1.1,1.1-4.5,2.6-6.4,2.8c-0.2,0-0.4,0.2-0.4,0.4v9.2
	c0,0.3,0.3,0.6,0.6,0.6c7.6,0.4,14.1,8.8,14.3,14.6H31.3c0.2-5.8,6.7-14.2,14.3-14.6C46,55.2,46.2,55,46.2,54.7z"/>
</svg>
